<?xml version="1.0" encoding="UTF-8" standalone="no" ?>
<!DOCTYPE svg PUBLIC "-//W3C//DTD SVG 1.1//EN" "http://www.w3.org/Graphics/SVG/1.1/DTD/svg11.dtd">
<svg xmlns="http://www.w3.org/2000/svg" xmlns:xlink="http://www.w3.org/1999/xlink" version="1.1" width="400" height="400" viewBox="0 0 400 400" xml:space="preserve">
<desc>Created with Fabric.js 3.6.2</desc>
<defs>
</defs>
<g transform="matrix(0.2 0 0 0.2 200 200)" id="Dark_Blue"  >
<path style="stroke: none; stroke-width: 1; stroke-dasharray: none; stroke-linecap: butt; stroke-dashoffset: 0; stroke-linejoin: miter; stroke-miterlimit: 4; fill: none; fill-rule: nonzero; opacity: 1;"  transform=" translate(-500, -500)" d="M 500 0 L 500 0 c 276.1 0 500 223.9 500 500 l 0 0 c 0 276.1 -223.9 500 -500 500 l 0 0 C 223.9 1000 0 776.1 0 500 l 0 0 C 0 223.9 223.9 0 500 0 z" stroke-linecap="round" />
</g>
<g transform="matrix(0.2 0 0 0.2 200.02 200.01)" id="Logo_FIXED"  >
<path style="stroke: none; stroke-width: 1; stroke-dasharray: none; stroke-linecap: butt; stroke-dashoffset: 0; stroke-linejoin: miter; stroke-miterlimit: 4; fill: rgb(255,255,255); fill-rule: nonzero; opacity: 1;"  transform=" translate(-500.1, -500.05)" d="M 384 754 c 235.8 0 364.9 -195.4 364.9 -364.9 c 0 -5.5 0 -11.1 -0.4 -16.6 c 25.1 -18.2 46.8 -40.6 64 -66.4 c -23.4 10.4 -48.2 17.2 -73.6 20.2 c 26.8 -16 46.8 -41.2 56.4 -70.9 c -25.2 14.9 -52.7 25.5 -81.4 31.1 c -48.6 -51.6 -129.8 -54.1 -181.4 -5.6 c -33.3 31.3 -47.4 78 -37.1 122.5 c -103.1 -5.2 -199.2 -53.9 -264.3 -134 c -34 58.6 -16.7 133.5 39.7 171.2 c -20.4 -0.6 -40.4 -6.1 -58.2 -16 c 0 0.5 0 1.1 0 1.6 c 0 61 43 113.6 102.9 125.7 c -18.9 5.1 -38.7 5.9 -57.9 2.2 c 16.8 52.2 64.9 88 119.8 89.1 c -45.4 35.7 -101.5 55.1 -159.2 55 c -10.2 0 -20.4 -0.6 -30.5 -1.9 C 246.1 734 314.4 754 384 754" stroke-linecap="round" />
</g>
<g transform="matrix(0.2 0 0 0.2 200 200)" id="Logo_FIXED"  >
<path style="stroke: none; stroke-width: 1; stroke-dasharray: none; stroke-linecap: butt; stroke-dashoffset: 0; stroke-linejoin: miter; stroke-miterlimit: 4; fill: none; fill-rule: nonzero; opacity: 1;"  transform=" translate(-500, -500)" d="M 500 0 L 500 0 c 276.1 0 500 223.9 500 500 l 0 0 c 0 276.1 -223.9 500 -500 500 l 0 0 C 223.9 1000 0 776.1 0 500 l 0 0 C 0 223.9 223.9 0 500 0 z" stroke-linecap="round" />
</g>
</svg>